<?xml version="1.0" encoding="utf-8"?>
<svg version="1.1" xmlns:xlink="http://www.w3.org/1999/xlink" width="73px" height="73px" xmlns="http://www.w3.org/2000/svg">
  <defs>
    <pattern id="BGPattern" patternUnits="userSpaceOnUse" alignment="0 0" imageRepeat="None" />
    <mask fill="white" id="Clip27">
      <path d="M 0 36.5  C 0 16.06  16.06 0  36.5 0  C 56.940000000000005 0  73 16.06  73 36.5  C 73 56.940000000000005  56.940000000000005 73  36.5 73  C 16.06 73  0 56.940000000000005  0 36.5  Z " fill-rule="evenodd" />
    </mask>
  </defs>
  <g transform="matrix(1 0 0 1 -605 -795 )">
    <path d="M 0 36.5  C 0 16.06  16.06 0  36.5 0  C 56.940000000000005 0  73 16.06  73 36.5  C 73 56.940000000000005  56.940000000000005 73  36.5 73  C 16.06 73  0 56.940000000000005  0 36.5  Z " fill-rule="nonzero" fill="rgba(0, 0, 0, 0.996078431372549)" stroke="none" transform="matrix(1 0 0 1 605 795 )" class="fill" />
    <path d="M 0 36.5  C 0 16.06  16.06 0  36.5 0  C 56.940000000000005 0  73 16.06  73 36.5  C 73 56.940000000000005  56.940000000000005 73  36.5 73  C 16.06 73  0 56.940000000000005  0 36.5  Z " stroke-width="2" stroke-dasharray="0" stroke="rgba(121, 121, 121, 0)" fill="none" transform="matrix(1 0 0 1 605 795 )" class="stroke" mask="url(#Clip27)" />
  </g>
</svg>