<?xml version="1.0" encoding="utf-8"?>
<svg version="1.1" xmlns:xlink="http://www.w3.org/1999/xlink" width="83px" height="83px" xmlns="http://www.w3.org/2000/svg">
  <defs>
    <pattern id="BGPattern" patternUnits="userSpaceOnUse" alignment="0 0" imageRepeat="None" />
    <mask fill="white" id="Clip25">
      <path d="M 0 41.5  C 0 18.259999999999998  18.259999999999998 0  41.5 0  C 64.74000000000001 0  83 18.259999999999998  83 41.5  C 83 64.74000000000001  64.74000000000001 83  41.5 83  C 18.259999999999998 83  0 64.74000000000001  0 41.5  Z " fill-rule="evenodd" />
    </mask>
  </defs>
  <g transform="matrix(1 0 0 1 -542 -292 )">
    <path d="M 0 41.5  C 0 18.259999999999998  18.259999999999998 0  41.5 0  C 64.74000000000001 0  83 18.259999999999998  83 41.5  C 83 64.74000000000001  64.74000000000001 83  41.5 83  C 18.259999999999998 83  0 64.74000000000001  0 41.5  Z " fill-rule="nonzero" fill="rgba(0, 0, 0, 1)" stroke="none" transform="matrix(1 0 0 1 542 292 )" class="fill" />
    <path d="M 0 41.5  C 0 18.259999999999998  18.259999999999998 0  41.5 0  C 64.74000000000001 0  83 18.259999999999998  83 41.5  C 83 64.74000000000001  64.74000000000001 83  41.5 83  C 18.259999999999998 83  0 64.74000000000001  0 41.5  Z " stroke-width="2" stroke-dasharray="0" stroke="rgba(121, 121, 121, 0)" fill="none" transform="matrix(1 0 0 1 542 292 )" class="stroke" mask="url(#Clip25)" />
  </g>
</svg>