<?xml version="1.0" encoding="utf-8"?>
<svg version="1.1" xmlns:xlink="http://www.w3.org/1999/xlink" width="84px" height="84px" xmlns="http://www.w3.org/2000/svg">
  <defs>
    <pattern id="BGPattern" patternUnits="userSpaceOnUse" alignment="0 0" imageRepeat="None" />
    <mask fill="white" id="Clip24">
      <path d="M 0 42  C 0 18.479999999999997  18.479999999999997 0  42 0  C 65.52 0  84 18.479999999999997  84 42  C 84 65.52  65.52 84  42 84  C 18.479999999999997 84  0 65.52  0 42  Z " fill-rule="evenodd" />
    </mask>
  </defs>
  <g transform="matrix(1 0 0 1 -357 -458 )">
    <path d="M 0 42  C 0 18.479999999999997  18.479999999999997 0  42 0  C 65.52 0  84 18.479999999999997  84 42  C 84 65.52  65.52 84  42 84  C 18.479999999999997 84  0 65.52  0 42  Z " fill-rule="nonzero" fill="rgba(0, 0, 0, 0.996078431372549)" stroke="none" transform="matrix(1 0 0 1 357 458 )" class="fill" />
    <path d="M 0 42  C 0 18.479999999999997  18.479999999999997 0  42 0  C 65.52 0  84 18.479999999999997  84 42  C 84 65.52  65.52 84  42 84  C 18.479999999999997 84  0 65.52  0 42  Z " stroke-width="2" stroke-dasharray="0" stroke="rgba(121, 121, 121, 0)" fill="none" transform="matrix(1 0 0 1 357 458 )" class="stroke" mask="url(#Clip24)" />
  </g>
</svg>