<?xml version="1.0" encoding="utf-8"?>
<svg version="1.1" xmlns:xlink="http://www.w3.org/1999/xlink" width="58px" height="58px" xmlns="http://www.w3.org/2000/svg">
  <defs>
    <pattern id="BGPattern" patternUnits="userSpaceOnUse" alignment="0 0" imageRepeat="None" />
    <mask fill="white" id="Clip30">
      <path d="M 0 29  C 0 12.759999999999998  12.759999999999998 0  29 0  C 45.24 0  58 12.759999999999998  58 29  C 58 45.24  45.24 58  29 58  C 12.759999999999998 58  0 45.24  0 29  Z " fill-rule="evenodd" />
    </mask>
  </defs>
  <g transform="matrix(1 0 0 1 -825 -326 )">
    <path d="M 0 29  C 0 12.759999999999998  12.759999999999998 0  29 0  C 45.24 0  58 12.759999999999998  58 29  C 58 45.24  45.24 58  29 58  C 12.759999999999998 58  0 45.24  0 29  Z " fill-rule="nonzero" fill="rgba(0, 0, 0, 0.996078431372549)" stroke="none" transform="matrix(1 0 0 1 825 326 )" class="fill" />
    <path d="M 0 29  C 0 12.759999999999998  12.759999999999998 0  29 0  C 45.24 0  58 12.759999999999998  58 29  C 58 45.24  45.24 58  29 58  C 12.759999999999998 58  0 45.24  0 29  Z " stroke-width="2" stroke-dasharray="0" stroke="rgba(121, 121, 121, 0)" fill="none" transform="matrix(1 0 0 1 825 326 )" class="stroke" mask="url(#Clip30)" />
  </g>
</svg>