<?xml version="1.0" encoding="utf-8"?>
<svg version="1.1" xmlns:xlink="http://www.w3.org/1999/xlink" width="66px" height="66px" xmlns="http://www.w3.org/2000/svg">
  <defs>
    <pattern id="BGPattern" patternUnits="userSpaceOnUse" alignment="0 0" imageRepeat="None" />
    <mask fill="white" id="Clip21">
      <path d="M 0 33  C 0 14.520000000000035  14.520000000000035 0  33 0  C 51.47999999999997 0  66 14.520000000000035  66 33  C 66 51.47999999999997  51.47999999999997 66  33 66  C 14.520000000000035 66  0 51.47999999999997  0 33  Z " fill-rule="evenodd" />
    </mask>
  </defs>
  <g transform="matrix(1 0 0 1 -1658 -912 )">
    <path d="M 0 33  C 0 14.520000000000035  14.520000000000035 0  33 0  C 51.47999999999997 0  66 14.520000000000035  66 33  C 66 51.47999999999997  51.47999999999997 66  33 66  C 14.520000000000035 66  0 51.47999999999997  0 33  Z " fill-rule="nonzero" fill="rgba(0, 0, 0, 0.996078431372549)" stroke="none" transform="matrix(1 0 0 1 1658 912 )" class="fill" />
    <path d="M 0 33  C 0 14.520000000000035  14.520000000000035 0  33 0  C 51.47999999999997 0  66 14.520000000000035  66 33  C 66 51.47999999999997  51.47999999999997 66  33 66  C 14.520000000000035 66  0 51.47999999999997  0 33  Z " stroke-width="2" stroke-dasharray="0" stroke="rgba(121, 121, 121, 0)" fill="none" transform="matrix(1 0 0 1 1658 912 )" class="stroke" mask="url(#Clip21)" />
  </g>
</svg>