<?xml version="1.0" encoding="utf-8"?>
<svg version="1.1" xmlns:xlink="http://www.w3.org/1999/xlink" width="43px" height="43px" xmlns="http://www.w3.org/2000/svg">
  <defs>
    <pattern id="BGPattern" patternUnits="userSpaceOnUse" alignment="0 0" imageRepeat="None" />
    <mask fill="white" id="Clip22">
      <path d="M 27 0  L 16 0  L 16 16  L 0 16  L 0 27  L 16 27  L 16 43  L 27 43  L 27 27  L 43 27  L 43 16  L 27 16  L 27 0  Z " fill-rule="evenodd" />
    </mask>
  </defs>
  <g transform="matrix(1 0 0 1 -1670 -924 )">
    <path d="M 27 0  L 16 0  L 16 16  L 0 16  L 0 27  L 16 27  L 16 43  L 27 43  L 27 27  L 43 27  L 43 16  L 27 16  L 27 0  Z " fill-rule="nonzero" fill="rgba(217, 0, 27, 1)" stroke="none" transform="matrix(1 0 0 1 1670 924 )" class="fill" />
    <path d="M 27 0  L 16 0  L 16 16  L 0 16  L 0 27  L 16 27  L 16 43  L 27 43  L 27 27  L 43 27  L 43 16  L 27 16  L 27 0  Z " stroke-width="2" stroke-dasharray="0" stroke="rgba(121, 121, 121, 1)" fill="none" transform="matrix(1 0 0 1 1670 924 )" class="stroke" mask="url(#Clip22)" />
  </g>
</svg>